<svg xmlns="http://www.w3.org/2000/svg" viewBox="0 0 240 197.97"><defs><style>.cls-1{fill:#c8daea;}.cls-2{fill:#a9c6d8;}.cls-3{fill:#fff;}</style></defs><g id="Warstwa_2" data-name="Warstwa 2"><g id="Livello_1" data-name="Livello 1"><path class="cls-1" d="M58.53,112.79l26.35,72.94s3.29,6.82,6.82,6.82,56-54.58,56-54.58L206,25.27,59.47,94Z"/><path class="cls-2" d="M93.47,131.5l-5.06,53.75s-2.12,16.48,14.35,0S135,156.08,135,156.08"/><path class="cls-3" d="M59,115.4,4.81,97.74s-6.48-2.63-4.4-8.59c.43-1.23,1.3-2.28,3.89-4.07,12-8.37,222.29-83.95,222.29-83.95s5.93-2,9.44-.67a5.13,5.13,0,0,1,3.49,3.8A17.93,17.93,0,0,1,240,9c0,1.4-.19,2.69-.32,4.71-1.28,20.66-39.6,174.88-39.6,174.88s-2.3,9-10.51,9.34a15,15,0,0,1-11-4.25c-16.12-13.86-71.84-51.31-84.16-59.55a2.35,2.35,0,0,1-1-1.66c-.17-.87.78-1.95.78-1.95s97-86.24,99.61-95.3c.2-.7-.56-1-1.57-.74-6.45,2.37-118.16,72.92-130.49,80.71A5.92,5.92,0,0,1,59,115.4Z"/></g></g></svg>